<?xml version="1.0" standalone="no"?>
<!DOCTYPE svg PUBLIC "-//W3C//DTD SVG 20010904//EN"
 "http://www.w3.org/TR/2001/REC-SVG-20010904/DTD/svg10.dtd">
<svg version="1.0" xmlns="http://www.w3.org/2000/svg"
 width="2000.000000pt" height="2000.000000pt" viewBox="0 0 2000.000000 2000.000000"
 preserveAspectRatio="xMidYMid meet">

<g transform="translate(0.000000,2000.000000) scale(0.100000,-0.100000)"
fill="#000000" stroke="none">
<path d="M5719 19504 c-42 -7 -111 -28 -155 -47 -279 -117 -452 -367 -510
-737 -21 -130 -15 -447 10 -585 94 -512 344 -997 807 -1565 109 -134 379 -443
391 -448 16 -7 8 -27 -16 -42 -13 -8 -49 -34 -79 -57 -30 -23 -111 -76 -180
-117 -189 -112 -280 -181 -395 -296 -174 -176 -206 -212 -266 -300 -32 -47
-70 -97 -85 -111 -14 -15 -42 -55 -61 -89 -19 -34 -57 -89 -85 -122 -27 -33
-62 -78 -77 -100 -14 -22 -51 -65 -81 -97 -30 -31 -57 -67 -61 -79 -5 -14 -30
-34 -69 -53 -348 -176 -663 -674 -783 -1239 -39 -182 -66 -447 -58 -575 11
-196 18 -253 39 -355 68 -329 210 -565 407 -676 61 -35 136 -57 229 -69 45 -6
46 -6 63 -63 96 -307 290 -657 519 -931 l94 -113 -97 -49 c-214 -107 -344
-253 -414 -462 -21 -63 -46 -208 -46 -266 1 -143 59 -303 143 -397 24 -27 62
-81 85 -120 73 -125 161 -235 301 -375 155 -155 292 -267 471 -385 184 -121
412 -241 577 -305 21 -8 18 -12 -43 -71 -85 -81 -157 -190 -238 -358 -110
-230 -182 -456 -226 -713 -141 -830 126 -1750 674 -2315 54 -56 97 -104 95
-105 -2 -2 -25 -16 -51 -31 -155 -88 -314 -283 -399 -489 -92 -221 -93 -456
-4 -597 87 -138 289 -230 475 -216 146 11 308 74 439 171 200 148 474 450 663
730 45 66 83 122 85 124 2 3 83 -21 181 -52 503 -160 987 -254 1537 -299 201
-16 781 -16 980 0 524 43 1042 142 1483 283 70 22 132 42 139 44 6 2 28 -24
49 -58 84 -136 258 -285 417 -356 450 -202 1063 -120 1360 182 149 153 211
345 173 536 -51 251 -225 431 -415 431 -106 0 -161 -39 -161 -112 0 -56 12
-72 95 -128 146 -98 195 -173 195 -297 0 -44 -7 -89 -17 -115 -60 -154 -227
-265 -484 -319 -148 -31 -400 -32 -547 0 -202 43 -350 113 -464 220 l-61 57
32 31 c22 23 31 41 31 65 0 45 -32 95 -75 115 -34 16 -38 16 -302 -50 -1348
-336 -2489 -362 -3813 -87 -266 55 -263 54 -283 95 -32 67 -127 96 -197 60
-16 -8 -111 -117 -212 -243 -354 -440 -541 -633 -681 -702 -187 -92 -343 -66
-413 70 -26 51 -30 171 -9 265 42 191 162 348 493 644 25 23 32 37 32 66 0 47
-8 62 -95 166 -242 290 -442 643 -557 979 -135 396 -173 883 -102 1305 48 286
167 627 279 794 61 93 170 195 199 187 116 -34 308 -79 407 -97 100 -17 126
-18 151 -8 41 17 58 46 58 101 0 84 -15 94 -340 217 -481 183 -654 260 -878
394 -236 141 -546 409 -680 587 -135 179 -196 341 -196 525 -1 114 15 159 85
252 112 149 270 206 509 182 63 -6 133 -17 155 -25 81 -28 155 -13 181 37 22
44 17 73 -33 187 -28 65 -47 123 -47 147 -1 36 2 40 25 43 59 7 127 -96 182
-274 14 -44 50 -146 81 -225 146 -384 239 -556 393 -731 199 -225 424 -363
648 -398 112 -18 289 14 336 61 25 25 26 90 1 112 -11 10 -73 28 -148 43 -226
45 -320 85 -457 193 -207 165 -311 336 -512 841 -133 334 -164 400 -229 486
-157 210 -392 245 -543 83 -32 -35 -70 -126 -78 -186 -7 -52 -8 -53 -40 -53
-37 0 -68 28 -189 174 -246 296 -436 660 -520 995 -127 503 -83 1015 144 1676
276 802 583 1296 1060 1708 503 435 1231 773 2185 1015 333 85 391 92 739 92
170 0 336 -4 370 -10 270 -44 405 -65 561 -85 266 -36 321 -50 585 -153 229
-90 313 -121 342 -127 32 -7 72 -21 278 -101 168 -65 283 -104 347 -119 93
-21 276 -96 475 -196 98 -49 242 -117 321 -150 78 -33 167 -74 197 -91 91 -50
140 -75 260 -132 216 -103 428 -228 610 -361 69 -50 159 -113 200 -140 94 -62
218 -180 274 -260 52 -74 206 -377 206 -404 0 -15 -20 -30 -75 -58 -101 -50
-184 -114 -280 -215 -204 -213 -334 -504 -385 -860 -14 -95 -14 -332 0 -444
14 -112 60 -292 99 -385 17 -40 28 -76 25 -80 -3 -5 -60 -35 -127 -68 -67 -32
-187 -102 -267 -154 -80 -52 -176 -115 -215 -140 -439 -280 -491 -318 -571
-422 -30 -38 -79 -99 -109 -135 -31 -36 -72 -99 -92 -140 -20 -41 -55 -104
-79 -140 -23 -36 -72 -112 -109 -170 -148 -230 -183 -252 -338 -216 -56 14
-416 189 -509 248 -48 30 -48 30 -48 87 -1 167 -157 278 -324 229 -59 -18
-138 -99 -155 -160 -31 -112 10 -225 103 -282 60 -38 162 -48 225 -23 36 15
40 15 72 -7 19 -12 141 -78 271 -145 218 -112 246 -124 340 -142 270 -54 340
-2 630 461 36 58 78 130 92 160 15 31 49 83 76 115 28 33 75 92 105 131 70 91
112 121 550 399 69 44 178 114 243 155 64 42 168 100 230 130 l113 55 26 -35
c14 -19 65 -73 113 -120 269 -264 615 -313 933 -133 89 50 154 103 244 196
220 231 369 592 390 945 3 57 10 102 16 102 16 0 1 -208 -28 -380 -53 -314
-138 -599 -362 -1217 -101 -280 -131 -352 -143 -347 -8 3 -61 8 -117 11 l-103
6 0 38 c0 101 -86 225 -188 272 -69 32 -169 30 -242 -4 -165 -77 -255 -216
-419 -639 -102 -264 -157 -388 -225 -504 -123 -210 -274 -359 -454 -450 -57
-29 -183 -64 -327 -92 -118 -23 -155 -60 -129 -129 15 -39 164 -85 279 -85
228 0 509 156 722 398 167 192 261 374 441 852 100 266 114 300 152 354 33 49
53 60 81 46 33 -18 24 -73 -31 -191 -63 -135 -66 -175 -16 -225 37 -37 86 -45
129 -22 30 16 194 37 292 38 152 0 257 -41 356 -139 94 -95 123 -159 127 -283
8 -218 -83 -428 -279 -644 -265 -292 -625 -537 -1056 -718 -73 -30 -221 -89
-330 -130 -414 -156 -412 -155 -429 -188 -19 -36 -12 -70 22 -115 38 -51 83
-59 201 -38 98 17 286 62 375 89 l46 15 13 -32 c7 -18 49 -97 93 -177 222
-405 362 -749 423 -1037 36 -174 38 -404 4 -563 -61 -287 -181 -542 -389 -820
-104 -140 -394 -432 -539 -544 -62 -47 -106 -90 -114 -108 -17 -41 2 -98 46
-137 29 -25 44 -31 83 -31 42 0 57 8 136 64 303 217 593 524 764 807 201 334
322 718 322 1024 -1 296 -99 648 -294 1050 -85 175 -218 414 -287 519 -22 33
-36 62 -32 66 4 4 33 17 63 30 84 35 277 133 376 191 398 234 760 570 910 844
21 39 59 94 85 124 93 104 139 237 139 399 0 161 -46 320 -129 449 -34 53
-110 133 -184 195 l-28 23 57 125 c148 326 274 822 354 1385 27 193 27 209 20
435 -9 275 -42 499 -116 793 -42 170 -49 188 -145 375 -202 397 -374 621 -814
1057 -325 323 -404 396 -520 484 -38 29 -79 63 -90 75 -47 52 -515 375 -566
391 -25 8 -24 17 7 46 15 13 86 89 158 169 72 80 139 154 150 165 32 35 209
247 266 320 500 635 741 1239 717 1800 -17 402 -144 669 -399 843 -198 135
-514 161 -782 65 -356 -128 -605 -448 -739 -953 -86 -323 -125 -657 -182
-1560 -8 -135 -20 -289 -25 -344 -6 -54 -10 -107 -10 -118 0 -19 -2 -19 -23
-5 -35 23 -390 140 -624 207 -114 32 -228 66 -253 74 -54 18 -480 134 -670
183 -151 39 -237 59 -420 98 -69 15 -170 39 -225 54 -174 49 -274 71 -320 71
-24 0 -66 4 -92 9 -26 5 -86 14 -133 21 -47 7 -114 19 -150 26 -36 8 -97 19
-137 24 -106 14 -437 -4 -648 -35 -99 -15 -223 -33 -275 -40 -199 -29 -238
-36 -350 -60 -186 -40 -341 -75 -405 -91 -33 -8 -101 -24 -152 -35 -51 -10
-114 -29 -140 -40 -26 -12 -79 -32 -117 -45 -38 -13 -84 -33 -103 -44 -51 -30
-63 -26 -63 18 0 33 -11 264 -35 727 -35 668 -85 1022 -190 1340 -156 473
-460 765 -862 831 -108 17 -223 17 -324 -2z m276 -315 c28 -6 91 -31 142 -55
72 -34 110 -61 177 -125 325 -307 433 -784 461 -2024 3 -126 8 -303 11 -392
l7 -161 -44 -28 c-24 -15 -62 -39 -84 -54 -22 -15 -64 -39 -92 -53 l-53 -26
-179 204 c-455 520 -691 869 -847 1258 -185 460 -204 949 -48 1233 36 66 123
153 183 183 109 55 236 69 366 40z m7852 -263 c198 -41 324 -172 384 -401 31
-113 38 -397 15 -551 -68 -443 -279 -869 -680 -1370 -161 -202 -570 -654 -591
-654 -6 0 -15 4 -20 9 -6 5 -48 30 -95 55 l-85 45 1 48 c1 128 50 1074 65
1258 57 717 190 1136 435 1364 182 170 377 238 571 197z"/>
<path d="M7492 14575 c-61 -27 -190 -139 -214 -187 -9 -18 -35 -70 -58 -116
-84 -169 -102 -343 -56 -535 31 -128 72 -209 141 -279 78 -78 112 -93 210 -93
75 0 86 3 176 47 151 73 180 118 235 369 49 223 41 451 -20 584 -33 72 -112
156 -173 182 -100 43 -184 53 -241 28z m107 -185 c39 -19 40 -20 66 -133 27
-112 27 -113 12 -219 -16 -112 -29 -140 -100 -206 -58 -54 -148 -34 -244 52
-62 56 -64 67 -33 216 37 176 45 195 111 261 59 61 60 62 104 56 25 -4 63 -16
84 -27z"/>
<path d="M11530 14131 c-162 -86 -191 -107 -227 -164 -15 -23 -47 -72 -71
-109 -90 -139 -128 -282 -118 -438 15 -228 36 -293 126 -393 58 -64 86 -82
154 -97 54 -12 160 6 230 39 22 10 51 22 63 26 36 10 97 79 130 147 38 77 107
290 124 378 19 102 17 284 -4 354 -35 114 -111 198 -224 245 -83 35 -134 39
-183 12z m116 -205 c16 -18 25 -49 34 -125 12 -97 11 -105 -14 -208 -24 -97
-30 -112 -69 -151 -78 -81 -142 -94 -216 -44 -57 38 -121 118 -121 150 0 14
21 88 47 165 43 126 52 144 96 188 27 27 65 58 85 68 36 19 38 19 87 0 28 -10
60 -30 71 -43z"/>
<path d="M9666 13037 c-14 -14 -31 -55 -45 -107 -12 -47 -24 -90 -26 -96 -7
-22 -260 -69 -456 -84 -299 -24 -592 30 -849 154 -52 25 -105 46 -118 46 -30
0 -72 -42 -72 -72 0 -38 24 -62 124 -127 104 -67 128 -95 194 -226 79 -158
124 -345 147 -617 31 -352 36 -395 55 -478 70 -288 264 -448 519 -427 218 18
422 213 509 487 60 187 138 736 177 1240 21 268 21 266 -14 301 -39 38 -109
41 -145 6z"/>
</g>
</svg>
